<svg xmlns="http://www.w3.org/2000/svg" viewBox="0 0 66.078 54.75">
  <defs>
    <style>
      .cls-1 {
        fill: #8d8d8d;
      }
    </style>
  </defs>
  <g id="car-compact" transform="translate(0 -38.37)">
    <path id="Path_786" data-name="Path 786" class="cls-1" d="M66.077,68.783a8.661,8.661,0,0,0-.823-3.677c-.055-.289-.117-.577-.2-.869l-5.74-14.225-.039-.128C57.271,43.9,54.414,38.37,47.168,38.37h-27.7c-7.424,0-10.048,5.671-12.1,11.481l-6,14.259A8.779,8.779,0,0,0,0,68.783v4.426a8.605,8.605,0,0,0,.235,2A3.479,3.479,0,0,0,0,76.459V89.624a3.5,3.5,0,0,0,3.5,3.5h7.254a3.5,3.5,0,0,0,3.494-3.5V83.041h38v6.583a3.5,3.5,0,0,0,3.5,3.5h6.838a3.5,3.5,0,0,0,3.5-3.5V76.458a3.5,3.5,0,0,0-.234-1.251,8.646,8.646,0,0,0,.234-2V68.783h0Zm-54.452-17.5c2.285-6.448,4.123-8.417,7.84-8.417h27.7c3.69,0,5.744,2.2,7.832,8.389l4.188,8.488a12.82,12.82,0,0,0-4.454-.788H11.344a12.879,12.879,0,0,0-4.04.643Zm3.6,23.611H7.57a2.5,2.5,0,0,1,0-4.993h7.653a2.5,2.5,0,0,1,0,4.993Zm27.036-.5h-17.8a1.581,1.581,0,0,1,0-3.161h17.8a1.581,1.581,0,1,1,0,3.161Zm16.055.5H50.661a2.5,2.5,0,0,1,0-4.993h7.653a2.5,2.5,0,1,1,0,4.993Z"/>
  </g>
</svg>
