<svg xmlns="http://www.w3.org/2000/svg" viewBox="0 0 46.287 50.915">
  <defs>
    <style>
      .cls-1 {
        fill: #fff;
      }
    </style>
  </defs>
  <g id="musical-note" transform="translate(-1.167 0)">
    <path id="Path_784" data-name="Path 784" class="cls-1" d="M42.623.194,20.6,6.932a6.914,6.914,0,0,0-4.831,6.213V36.375s-1.6-1.076-5.15-.573c-5.219.741-9.452,4.748-9.452,8.95S5.4,51.53,10.619,50.789s9.051-4.621,9.051-8.825V22.128c0-1.863,2.24-2.662,2.24-2.662l19.472-6.1s2.155-.724,2.155,1.271V30.565A9.495,9.495,0,0,0,38,29.855c-5.219.632-9.452,4.555-9.452,8.756s4.232,6.865,9.452,6.23,9.456-4.553,9.456-8.758V3.647C47.454.979,45.289-.567,42.623.194Z" transform="translate(0 0)"/>
  </g>
</svg>
