<svg xmlns="http://www.w3.org/2000/svg" viewBox="0 0 76.758 78.312">
  <defs>
    <style>
      .cls-1 {
        fill: #8d8d8d;
      }
    </style>
  </defs>
  <g id="settings" transform="translate(0 0)">
    <path id="Path_785" data-name="Path 785" class="cls-1" d="M3.244,45.072l5.03.032a31.58,31.58,0,0,0,4.5,11.272L9.2,59.989a3.377,3.377,0,0,0-.031,4.7l3.855,3.981a3.218,3.218,0,0,0,4.607.032L21.2,65.089a30.106,30.106,0,0,0,11,4.717l-.031,5.132a3.291,3.291,0,0,0,3.244,3.342l5.485.032A3.29,3.29,0,0,0,44.177,75l.031-5.132a30.265,30.265,0,0,0,11.048-4.589L58.8,68.927a3.218,3.218,0,0,0,4.607.032l3.9-3.933a3.377,3.377,0,0,0,.031-4.7L63.8,56.679a31.385,31.385,0,0,0,4.623-11.224l5.03.032a3.29,3.29,0,0,0,3.275-3.31l.031-5.6a3.291,3.291,0,0,0-3.244-3.342l-5.03-.032a31.58,31.58,0,0,0-4.5-11.272l3.573-3.613a3.377,3.377,0,0,0,.031-4.7L63.735,9.641a3.218,3.218,0,0,0-4.607-.032l-3.573,3.613a30.106,30.106,0,0,0-11-4.717l.031-5.132A3.291,3.291,0,0,0,41.341.032L35.856,0a3.29,3.29,0,0,0-3.275,3.31l-.047,5.132a30.044,30.044,0,0,0-11.048,4.589L17.944,9.386a3.218,3.218,0,0,0-4.607-.032L9.45,13.287a3.377,3.377,0,0,0-.031,4.7l3.542,3.645A31.384,31.384,0,0,0,8.337,32.857l-5.03-.032a3.29,3.29,0,0,0-3.275,3.31L0,41.73A3.3,3.3,0,0,0,3.244,45.072ZM28.1,28.556a14.381,14.381,0,0,1,20.639.112,15.094,15.094,0,0,1-.11,21.057,14.381,14.381,0,0,1-20.639-.112A15.094,15.094,0,0,1,28.1,28.556Z"/>
  </g>
</svg>
