<svg xmlns="http://www.w3.org/2000/svg" viewBox="0 0 42.021 73.605">
  <defs>
    <style>
      .cls-1 {
        fill: #8d8d8d;
      }
    </style>
  </defs>
  <g id="thermometer" transform="translate(-64.708)">
    <path id="Path_790" data-name="Path 790" class="cls-1" d="M106.73,9.365V12.5H94.574V9.365Zm-5.1,6.837H94.574v3.137h7.058Zm-7.058,9.974H106.73V23.039H94.574Zm7.058,3.7H94.574v3.137h7.058Zm-7.058,9.974H106.73V36.714H94.574Zm1.895,17.874A15.88,15.88,0,1,1,72.55,44.04v-36a8.038,8.038,0,1,1,16.077,0v36A15.8,15.8,0,0,1,96.469,57.725Zm-3.137,0a12.686,12.686,0,0,0-6.984-11.355l-.858-.436V8.04a4.9,4.9,0,1,0-9.8,0V45.933l-.858.436a12.739,12.739,0,1,0,18.5,11.355Zm-2.613,0a10.13,10.13,0,1,1-12.737-9.776l.582-.155V28.447h4.051V47.792l.582.157A10.129,10.129,0,0,1,90.719,57.725ZM81.09,50.973a2.027,2.027,0,0,0-2.42-1.528,8.327,8.327,0,0,0-6.522,8.167,2.023,2.023,0,0,0,4.047,0,4.353,4.353,0,0,1,3.367-4.219A2.033,2.033,0,0,0,81.09,50.973Z"/>
  </g>
</svg>
