<svg xmlns="http://www.w3.org/2000/svg" xmlns:xlink="http://www.w3.org/1999/xlink" viewBox="0 0 150 285">
  <defs>
    <style>
      .cls-1 {
        fill: #848483;
        font-size: 30px;
        letter-spacing: 0.046em;
      }

      .cls-1, .cls-6 {
        font-family: SegoeUI, Segoe UI;
      }

      .cls-2, .cls-8 {
        fill: none;
      }

      .cls-2 {
        stroke: #323232;
        stroke-width: 6px;
      }

      .cls-3 {
        fill: #323232;
      }

      .cls-4 {
        fill: #0d0d0d;
      }

      .cls-5 {
        fill: url(#linear-gradient);
      }

      .cls-6 {
        fill: #fff;
        font-size: 32px;
        letter-spacing: 0.036em;
      }

      .cls-7 {
        stroke: none;
      }
    </style>
    <linearGradient id="linear-gradient" x1="1.062" x2="-0.061" y2="1.072" gradientUnits="objectBoundingBox">
      <stop offset="0" stop-color="#ff8f4a"/>
      <stop offset="1" stop-color="#ff5353"/>
    </linearGradient>
  </defs>
  <g id="Group_29" data-name="Group 29" transform="translate(-30)">
    <text id="Battery" class="cls-1" transform="translate(140 285) rotate(-90)"><tspan x="91.646" y="32">Battery</tspan></text>
    <g id="Battery_25_" data-name="Battery 25%" transform="translate(-4074 420) rotate(-90)">
      <g id="Group_28" data-name="Group 28">
        <g id="Group_27" data-name="Group 27">
          <g id="Group_26" data-name="Group 26">
            <g id="Body" transform="translate(107 3973)">
              <g id="Rectangle_105" data-name="Rectangle 105" class="cls-2" transform="translate(53 131)">
                <rect class="cls-7" width="207" height="110" rx="26"/>
                <rect class="cls-8" x="3" y="3" width="201" height="104" rx="23"/>
              </g>
              <path id="Subtraction_19" data-name="Subtraction 19" class="cls-3" d="M-1976-3012h0v-40a19.878,19.878,0,0,1,7.785,1.572,19.938,19.938,0,0,1,6.358,4.286,19.938,19.938,0,0,1,4.286,6.357A19.874,19.874,0,0,1-1956-3032a19.874,19.874,0,0,1-1.572,7.785,19.938,19.938,0,0,1-4.286,6.357,19.938,19.938,0,0,1-6.358,4.286A19.88,19.88,0,0,1-1976-3012Z" transform="translate(2244 3218)"/>
            </g>
          </g>
          <rect id="Juice" class="cls-4" width="187" height="90" rx="17" transform="translate(170 4114)"/>
        </g>
        <path id="Juice-2" data-name="Juice" class="cls-5" d="M17,0H57a0,0,0,0,1,0,0V90a0,0,0,0,1,0,0H17A17,17,0,0,1,0,73V17A17,17,0,0,1,17,0Z" transform="translate(170 4114)"/>
        <text id="_25_" data-name="25%" class="cls-6" transform="translate(227 4120) rotate(90)"><tspan x="10.504" y="35">25%</tspan></text>
      </g>
    </g>
  </g>
</svg>
