<svg xmlns="http://www.w3.org/2000/svg" viewBox="0 0 89.042 89.042">
  <defs>
    <style>
      .cls-1 {
        fill: #222324;
      }

      .cls-2 {
        fill: #ff4a4a;
      }
    </style>
  </defs>
  <g id="Group_37" data-name="Group 37" transform="translate(-727.999 -45.5)">
    <g id="Wifi_Icon" data-name="Wifi Icon" transform="translate(727.999 45.5)">
      <path id="Path_130" data-name="Path 130" class="cls-1" d="M44.521,0A44.521,44.521,0,1,1,0,44.521,44.521,44.521,0,0,1,44.521,0Z" transform="translate(0)"/>
    </g>
    <path id="doors" class="cls-2" d="M36.043,21.886V16.042l5.579,5.579a1.433,1.433,0,1,0,2.027-2.026l-7.606-7.606V4.27A4.441,4.441,0,0,0,31.457,0H20.469a4.441,4.441,0,0,0-4.586,4.27v7.719L8.278,19.595A1.433,1.433,0,0,0,10.3,21.621l5.579-5.579v5.844L8.278,29.492A1.433,1.433,0,0,0,10.3,31.519l5.579-5.579v9a4.441,4.441,0,0,0,4.586,4.27H31.457a4.441,4.441,0,0,0,4.586-4.27v-9l5.579,5.579a1.433,1.433,0,0,0,2.027-2.027Zm-2.866.594v6.8H18.75v-6.8h0v-9.92H33.177v9.92ZM20.469,2.866H31.457a1.608,1.608,0,0,1,1.72,1.4V9.693H18.75V4.27A1.608,1.608,0,0,1,20.469,2.866ZM31.457,36.347H20.469a1.608,1.608,0,0,1-1.72-1.4v-2.8H33.177v2.8A1.608,1.608,0,0,1,31.457,36.347Z" transform="translate(746.447 70.021)"/>
  </g>
</svg>
