<svg xmlns="http://www.w3.org/2000/svg" viewBox="0 0 89.042 89.042">
  <defs>
    <style>
      .cls-1 {
        fill: #222324;
      }

      .cls-2 {
        fill: #4694ff;
      }
    </style>
  </defs>
  <g id="Group_36" data-name="Group 36" transform="translate(-578.999 -46.5)">
    <g id="Wifi_Icon" data-name="Wifi Icon" transform="translate(578.999 46.5)">
      <path id="Path_130" data-name="Path 130" class="cls-1" d="M44.521,0A44.521,44.521,0,1,1,0,44.521,44.521,44.521,0,0,1,44.521,0Z" transform="translate(0)"/>
    </g>
    <g id="high-beam" transform="translate(855 434.654)">
      <path id="Path_777" data-name="Path 777" class="cls-2" d="M98.882,41.164A19.282,19.282,0,0,0,88,37.346a8.411,8.411,0,0,0-7.839,4.276c-1.279,2.223-1.9,5.255-1.9,9.267s.622,7.043,1.9,9.267A8.412,8.412,0,0,0,88,64.432a19.282,19.282,0,0,0,10.878-3.818c3.715-2.72,5.76-6.173,5.76-9.725S102.6,43.884,98.882,41.164ZM97.126,58.216A16.451,16.451,0,0,1,88,61.46c-3.151,0-6.768-1.2-6.768-10.571S84.853,40.318,88,40.318a16.45,16.45,0,0,1,9.122,3.244c2.888,2.114,4.544,4.785,4.544,7.327S100.014,56.1,97.126,58.216Z" transform="translate(-315.244 -393.378)"/>
      <path id="Path_778" data-name="Path 778" class="cls-2" d="M12.691,44.944H1.486a1.486,1.486,0,1,0,0,2.972H12.691a1.486,1.486,0,0,0,0-2.972Z" transform="translate(-252.487 -399.471)"/>
      <path id="Path_779" data-name="Path 779" class="cls-2" d="M12.691,72.3H1.486a1.486,1.486,0,1,0,0,2.972H12.691a1.486,1.486,0,0,0,0-2.972Z" transform="translate(-252.487 -421.406)"/>
      <path id="Path_780" data-name="Path 780" class="cls-2" d="M12.691,99.653H1.486a1.486,1.486,0,1,0,0,2.972H12.691a1.486,1.486,0,1,0,0-2.972Z" transform="translate(-252.487 -443.34)"/>
      <path id="Path_781" data-name="Path 781" class="cls-2" d="M12.691,127.008H1.486a1.486,1.486,0,0,0,0,2.972H12.691a1.486,1.486,0,0,0,0-2.972Z" transform="translate(-252.487 -465.275)"/>
      <path id="Path_782" data-name="Path 782" class="cls-2" d="M12.691,154.362H1.486a1.486,1.486,0,1,0,0,2.972H12.691a1.486,1.486,0,1,0,0-2.972Z" transform="translate(-252.487 -487.21)"/>
    </g>
  </g>
</svg>
