<svg xmlns="http://www.w3.org/2000/svg" viewBox="0 0 89.042 89.042">
  <defs>
    <style>
      .cls-1 {
        fill: #222324;
        stroke-linecap: square;
        stroke-linejoin: bevel;
      }

      .cls-2 {
        fill: #f8f6f6;
      }

      .cls-3, .cls-4 {
        stroke: none;
      }

      .cls-4 {
        fill: #707070;
      }
    </style>
  </defs>
  <g id="Group_43" data-name="Group 43" transform="translate(-1501.999 -46.5)">
    <g id="Wifi_Icon" data-name="Wifi Icon" transform="translate(1501.999 46.5)">
      <g id="Group_23" data-name="Group 23">
        <g id="Path_130" data-name="Path 130" class="cls-1">
          <path class="cls-3" d="M 44.52075958251953 88.54152679443359 C 38.5777702331543 88.54152679443359 32.81283187866211 87.377685546875 27.38605308532715 85.08235931396484 C 22.1441478729248 82.86521911621094 17.43633651733398 79.69108581542969 13.39338302612305 75.64813232421875 C 9.350441932678223 71.60519409179688 6.176312446594238 66.89736938476563 3.959171295166016 61.65547561645508 C 1.663841962814331 56.22870254516602 0.5000066161155701 50.46374893188477 0.5000066161155701 44.52075958251953 C 0.5000066161155701 38.5777702331543 1.663841962814331 32.81283187866211 3.959171295166016 27.38605308532715 C 6.176312446594238 22.1441478729248 9.350441932678223 17.43633651733398 13.39338302612305 13.39338302612305 C 17.43633651733398 9.350441932678223 22.1441478729248 6.176312446594238 27.38605308532715 3.959171295166016 C 32.81283187866211 1.663841962814331 38.5777702331543 0.5000066161155701 44.52075958251953 0.5000066161155701 C 50.46374893188477 0.5000066161155701 56.22870254516602 1.663841962814331 61.65547561645508 3.959171295166016 C 66.89736938476563 6.176312446594238 71.60519409179688 9.350441932678223 75.64813232421875 13.39338302612305 C 79.69108581542969 17.43633651733398 82.86521911621094 22.1441478729248 85.08235931396484 27.38605308532715 C 87.377685546875 32.81283187866211 88.54152679443359 38.5777702331543 88.54152679443359 44.52075958251953 C 88.54152679443359 50.46374893188477 87.377685546875 56.22870254516602 85.08235931396484 61.65547561645508 C 82.86521911621094 66.89736938476563 79.69108581542969 71.60519409179688 75.64813232421875 75.64813232421875 C 71.60519409179688 79.69108581542969 66.89736938476563 82.86521911621094 61.65547561645508 85.08235931396484 C 56.22870254516602 87.377685546875 50.46374893188477 88.54152679443359 44.52075958251953 88.54152679443359 Z"/>
          <path class="cls-4" d="M 44.52075958251953 0.9999923706054688 C 38.64505386352539 0.9999923706054688 32.94562911987305 2.150535583496094 27.58081817626953 4.419662475585938 C 22.39851379394531 6.611595153808594 17.74412536621094 9.749732971191406 13.74693298339844 13.74693298339844 C 9.749732971191406 17.74412536621094 6.611595153808594 22.39851379394531 4.419662475585938 27.58081817626953 C 2.150535583496094 32.94562911987305 0.9999923706054688 38.64505386352539 0.9999923706054688 44.52075958251953 C 0.9999923706054688 50.39646530151367 2.150535583496094 56.09587860107422 4.419662475585938 61.46068954467773 C 6.611595153808594 66.64299011230469 9.749732971191406 71.29737854003906 13.74693298339844 75.29458618164063 C 17.74412536621094 79.29177093505859 22.39851379394531 82.42991638183594 27.58081817626953 84.62184143066406 C 32.94562911987305 86.89096832275391 38.64505386352539 88.04151153564453 44.52075958251953 88.04151153564453 C 50.39646530151367 88.04151153564453 56.09587860107422 86.89096832275391 61.46068954467773 84.62184143066406 C 66.64299011230469 82.42991638183594 71.29737854003906 79.29177093505859 75.29458618164063 75.29458618164063 C 79.29177093505859 71.29737854003906 82.42991638183594 66.64299011230469 84.62184143066406 61.46068954467773 C 86.89096832275391 56.09587860107422 88.04151153564453 50.39646530151367 88.04151153564453 44.52075958251953 C 88.04151153564453 38.64505386352539 86.89096832275391 32.94562911987305 84.62184143066406 27.58081817626953 C 82.42991638183594 22.39851379394531 79.29177093505859 17.74412536621094 75.29458618164063 13.74693298339844 C 71.29737854003906 9.749732971191406 66.64299011230469 6.611595153808594 61.46068954467773 4.419662475585938 C 56.09587860107422 2.150535583496094 50.39646530151367 0.9999923706054688 44.52075958251953 0.9999923706054688 M 44.52075958251953 -7.62939453125e-06 C 69.10888671875 -7.62939453125e-06 89.04151153564453 19.9326171875 89.04151153564453 44.52075958251953 C 89.04151153564453 69.10888671875 69.10888671875 89.04151153564453 44.52075958251953 89.04151153564453 C 19.9326171875 89.04151153564453 -7.62939453125e-06 69.10888671875 -7.62939453125e-06 44.52075958251953 C -7.62939453125e-06 19.9326171875 19.9326171875 -7.62939453125e-06 44.52075958251953 -7.62939453125e-06 Z"/>
        </g>
      </g>
    </g>
    <g id="_153349" data-name="153349" transform="translate(1469.992 1290.786)">
      <path id="Path_2080" data-name="Path 2080" class="cls-2" d="M76.486-1220.7a5.1,5.1,0,0,0-1.17.664c-1.467,1.085-5.057,4.679-10.432,10.449-.357.382-.657.7-.668.7s.018-.042.067-.1c.088-.1.085-.1-.177.011-.131.053-.145.067-.088.088.035.014-1.527.028-3.477.028l-3.541,0,.007,8.842.011,8.845,3.622.018,3.626.018.774.848c5.17,5.661,8.905,9.389,10.407,10.393a4.623,4.623,0,0,0,1.255.6,1.06,1.06,0,0,0,1.375-.883c.014-.053.025-8.944.025-19.754,0-19.436,0-19.655-.071-19.924a1.252,1.252,0,0,0-.311-.633.852.852,0,0,0-.682-.3A1.151,1.151,0,0,0,76.486-1220.7Z"/>
      <path id="Path_2081" data-name="Path 2081" class="cls-2" d="M971.689-1154.869c-.078.071-.265.247-.413.392l-.276.261.244.272c.134.148.392.47.58.714a25.345,25.345,0,0,1,4.438,10.845,35.017,35.017,0,0,1,0,11.52,23.2,23.2,0,0,1-4.682,10.831c-.18.212-.375.435-.435.491a.42.42,0,0,0-.109.145,6.108,6.108,0,0,0,.806.8,7.148,7.148,0,0,0,.823-.866c3.2-3.916,5.1-9.75,5.255-16.132a31.247,31.247,0,0,0-3.018-14.877,20.9,20.9,0,0,0-2.332-3.732,5.839,5.839,0,0,0-.717-.792A.976.976,0,0,0,971.689-1154.869Z" transform="translate(-881.701 -63.462)"/>
      <path id="Path_2082" data-name="Path 2082" class="cls-2" d="M841.317-1035.6l-.417.4.233.265a16.591,16.591,0,0,1,2.891,5.053,24.074,24.074,0,0,1,.042,15.853,15.288,15.288,0,0,1-3.05,5.11l-.088.1.385.406a2.879,2.879,0,0,0,.424.41,8.6,8.6,0,0,0,1.141-1.3,19.687,19.687,0,0,0,3.537-9.591,27.992,27.992,0,0,0,.014-5.81,20.783,20.783,0,0,0-3.8-10.266,9.125,9.125,0,0,0-.876-1.025C841.745-1036,841.547-1035.82,841.317-1035.6Z" transform="translate(-756.198 -178.256)"/>
      <path id="Path_2083" data-name="Path 2083" class="cls-2" d="M696.729-919.883c-.049.06-.212.265-.357.452l-.272.339.322.279a11.614,11.614,0,0,1,1.933,2.329,15.4,15.4,0,0,1,1.042,2.145,13.692,13.692,0,0,1,.657,2.792,16.026,16.026,0,0,1-.018,3.216,10.923,10.923,0,0,1-3.831,7.124l-.088.067.279.382c.152.208.311.421.354.47l.081.092.329-.269A11.9,11.9,0,0,0,698.5-901.8a12.314,12.314,0,0,0,2.686-6.117,15.159,15.159,0,0,0-.071-4.626,12.684,12.684,0,0,0-3.347-6.615,7.389,7.389,0,0,0-.929-.841A.631.631,0,0,0,696.729-919.883Z" transform="translate(-616.515 -290.157)"/>
    </g>
  </g>
</svg>
