<svg xmlns="http://www.w3.org/2000/svg" viewBox="0 0 122.475 122.474">
  <defs>
    <style>
      .cls-1 {
        stroke: #54a5ed;
        stroke-width: 4px;
        opacity: 0.601;
      }

      .cls-2 {
        fill: #f8f6f6;
      }

      .cls-3 {
        stroke: none;
      }

      .cls-4 {
        fill: none;
      }
    </style>
  </defs>
  <g id="Group_33" data-name="Group 33" transform="translate(-96.763 -732.763)">
    <g id="Trending" transform="translate(77 678)">
      <g id="Trending-2" data-name="Trending" transform="matrix(0.966, -0.259, 0.259, 0.966, -29.195, 25.435)">
        <g id="Ellipse_123" data-name="Ellipse 123" class="cls-1" transform="translate(33 66)">
          <circle class="cls-3" cx="50" cy="50" r="50"/>
          <circle class="cls-4" cx="50" cy="50" r="48"/>
        </g>
      </g>
    </g>
    <g id="_17216" data-name="17216" transform="translate(134 768.931)">
      <g id="Group_18" data-name="Group 18" transform="translate(0 0.394)">
        <g id="Group_17" data-name="Group 17" transform="translate(0)">
          <path id="Path_2079" data-name="Path 2079" class="cls-2" d="M47.976,39.123,40.4,31.543a3.952,3.952,0,0,0-5.572.1l-3.818,3.818c-.241-.133-.491-.272-.753-.419A38,38,0,0,1,21.069,28.4a38.209,38.209,0,0,1-6.656-9.2c-.141-.256-.277-.5-.411-.736l2.563-2.559,1.26-1.261a3.948,3.948,0,0,0,.1-5.572L10.347,1.493a3.948,3.948,0,0,0-5.572.1L2.639,3.747,2.7,3.8a12.352,12.352,0,0,0-1.76,3.1,12.872,12.872,0,0,0-.783,3.149c-1,8.3,2.791,15.879,13.08,26.168C27.457,50.448,38.918,49.374,39.413,49.321a12.806,12.806,0,0,0,3.158-.793,12.31,12.31,0,0,0,3.094-1.753l.047.041L47.875,44.7A3.955,3.955,0,0,0,47.976,39.123Z" transform="translate(0 -0.394)"/>
        </g>
      </g>
    </g>
  </g>
</svg>
