<svg xmlns="http://www.w3.org/2000/svg" viewBox="0 0 39.231 41.542">
  <defs>
    <style>
      .cls-1 {
        fill: #f8f6f6;
      }
    </style>
  </defs>
  <g id="_153349" data-name="153349" transform="translate(-57 1220.786)">
    <path id="Path_2080" data-name="Path 2080" class="cls-1" d="M76.486-1220.7a5.1,5.1,0,0,0-1.17.664c-1.467,1.085-5.057,4.679-10.432,10.449-.357.382-.657.7-.668.7s.018-.042.067-.1c.088-.1.085-.1-.177.011-.131.053-.145.067-.088.088.035.014-1.527.028-3.477.028l-3.541,0,.007,8.842.011,8.845,3.622.018,3.626.018.774.848c5.17,5.661,8.905,9.389,10.407,10.393a4.623,4.623,0,0,0,1.255.6,1.06,1.06,0,0,0,1.375-.883c.014-.053.025-8.944.025-19.754,0-19.436,0-19.655-.071-19.924a1.252,1.252,0,0,0-.311-.633.852.852,0,0,0-.682-.3A1.151,1.151,0,0,0,76.486-1220.7Z"/>
    <path id="Path_2081" data-name="Path 2081" class="cls-1" d="M971.689-1154.869c-.078.071-.265.247-.413.392l-.276.261.244.272c.134.148.392.47.58.714a25.345,25.345,0,0,1,4.438,10.845,35.017,35.017,0,0,1,0,11.52,23.2,23.2,0,0,1-4.682,10.831c-.18.212-.375.435-.435.491a.42.42,0,0,0-.109.145,6.108,6.108,0,0,0,.806.8,7.148,7.148,0,0,0,.823-.866c3.2-3.916,5.1-9.75,5.255-16.132a31.247,31.247,0,0,0-3.018-14.877,20.9,20.9,0,0,0-2.332-3.732,5.839,5.839,0,0,0-.717-.792A.976.976,0,0,0,971.689-1154.869Z" transform="translate(-881.701 -63.462)"/>
    <path id="Path_2082" data-name="Path 2082" class="cls-1" d="M841.317-1035.6l-.417.4.233.265a16.591,16.591,0,0,1,2.891,5.053,24.074,24.074,0,0,1,.042,15.853,15.288,15.288,0,0,1-3.05,5.11l-.088.1.385.406a2.879,2.879,0,0,0,.424.41,8.6,8.6,0,0,0,1.141-1.3,19.687,19.687,0,0,0,3.537-9.591,27.992,27.992,0,0,0,.014-5.81,20.783,20.783,0,0,0-3.8-10.266,9.125,9.125,0,0,0-.876-1.025C841.745-1036,841.547-1035.82,841.317-1035.6Z" transform="translate(-756.198 -178.256)"/>
    <path id="Path_2083" data-name="Path 2083" class="cls-1" d="M696.729-919.883c-.049.06-.212.265-.357.452l-.272.339.322.279a11.614,11.614,0,0,1,1.933,2.329,15.4,15.4,0,0,1,1.042,2.145,13.692,13.692,0,0,1,.657,2.792,16.026,16.026,0,0,1-.018,3.216,10.923,10.923,0,0,1-3.831,7.124l-.088.067.279.382c.152.208.311.421.354.47l.081.092.329-.269A11.9,11.9,0,0,0,698.5-901.8a12.314,12.314,0,0,0,2.686-6.117,15.159,15.159,0,0,0-.071-4.626,12.684,12.684,0,0,0-3.347-6.615,7.389,7.389,0,0,0-.929-.841A.631.631,0,0,0,696.729-919.883Z" transform="translate(-616.515 -290.157)"/>
  </g>
</svg>
