<svg xmlns="http://www.w3.org/2000/svg" viewBox="0 0 46.266 46.266">
  <defs>
    <style>
      .cls-1 {
        fill: #fff;
      }
    </style>
  </defs>
  <g id="Wifi_Active" data-name="Wifi Active" transform="matrix(0.719, -0.695, 0.695, 0.719, 0, 22.729)">
    <path id="Subtraction_17" data-name="Subtraction 17" class="cls-1" d="M32.72,32.72H27.013A26.844,26.844,0,0,0,24.89,22.206,27.013,27.013,0,0,0,22.4,17.617a27.213,27.213,0,0,0-3.3-4,27.2,27.2,0,0,0-4-3.3A27.013,27.013,0,0,0,10.514,7.83,26.84,26.84,0,0,0,0,5.707V0A32.962,32.962,0,0,1,6.594.665a32.571,32.571,0,0,1,6.142,1.907,32.746,32.746,0,0,1,5.558,3.017,33,33,0,0,1,4.843,4,32.982,32.982,0,0,1,4,4.843,32.727,32.727,0,0,1,3.017,5.558,32.562,32.562,0,0,1,1.907,6.142,32.955,32.955,0,0,1,.665,6.594Z"/>
    <path id="Subtraction_16" data-name="Subtraction 16" class="cls-1" d="M21.686,21.687H15.98a15.882,15.882,0,0,0-1.256-6.22A15.93,15.93,0,0,0,11.3,10.387,15.926,15.926,0,0,0,6.22,6.963,15.879,15.879,0,0,0,0,5.707V0A21.555,21.555,0,0,1,8.441,1.7a21.677,21.677,0,0,1,3.684,2,21.818,21.818,0,0,1,3.209,2.648,21.821,21.821,0,0,1,2.648,3.21,21.69,21.69,0,0,1,2,3.684,21.551,21.551,0,0,1,1.7,8.441Z" transform="translate(0 11.033)"/>
    <path id="Subtraction_15" data-name="Subtraction 15" class="cls-1" d="M9.512,9.512H0V0A9.452,9.452,0,0,1,3.7.747,9.48,9.48,0,0,1,6.726,2.786,9.48,9.48,0,0,1,8.764,5.809a9.452,9.452,0,0,1,.747,3.7Z" transform="translate(0 23.209)"/>
  </g>
</svg>
