<svg xmlns="http://www.w3.org/2000/svg" viewBox="0 0 83.826 81.504">
  <defs>
    <style>
      .cls-1 {
        fill: #8d8d8d;
      }
    </style>
  </defs>
  <path id="usb-cable" class="cls-1" d="M82.385,40.736h-4.08V23.882a19.853,19.853,0,0,0-39.705,0v41.8a13.228,13.228,0,0,1-26.457,0V48.37h4.08a1.44,1.44,0,0,0,1.44-1.44V26.659a1.44,1.44,0,0,0-1.44-1.44h-1.35V17.645a1.44,1.44,0,0,0-1.44-1.44H4.23a1.44,1.44,0,0,0-1.44,1.44v7.574H1.44A1.44,1.44,0,0,0,0,26.659V46.93a1.44,1.44,0,0,0,1.44,1.44H5.52V65.682a19.852,19.852,0,0,0,39.7,0v-41.8a13.229,13.229,0,0,1,26.457,0V40.736H67.6a1.44,1.44,0,0,0-1.44,1.44V62.447a1.44,1.44,0,0,0,1.44,1.44h1.35V71.46a1.44,1.44,0,0,0,1.44,1.44h9.2a1.44,1.44,0,0,0,1.44-1.44V63.887h1.35a1.44,1.44,0,0,0,1.44-1.44V42.176A1.441,1.441,0,0,0,82.385,40.736ZM5.67,19.085h6.325v6.134H5.67ZM78.156,70.02H71.831V63.887h6.325Z" transform="translate(0 -4.03)"/>
</svg>
