<svg xmlns="http://www.w3.org/2000/svg" viewBox="0 0 92.713 92.16">
  <defs>
    <style>
      .cls-1 {
        fill: #8d8d8d;
      }
    </style>
  </defs>
  <g id="radio-alarm" transform="translate(0 -1.7)">
    <g id="Group_2" data-name="Group 2" transform="translate(0 1.7)">
      <g id="Group_1" data-name="Group 1" transform="translate(0 0)">
        <path id="Path_787" data-name="Path 787" class="cls-1" d="M326.177,87.573a3.09,3.09,0,0,0,4.37,4.37,12.869,12.869,0,0,1,18.2,0,3.09,3.09,0,0,0,4.37-4.37,19.047,19.047,0,0,0-26.94,0Z" transform="translate(-272.431 -68.948)"/>
        <path id="Path_788" data-name="Path 788" class="cls-1" d="M272.293,16.328a3.081,3.081,0,0,0,2.185-.905,25.753,25.753,0,0,1,36.418,0,3.09,3.09,0,0,0,4.37-4.37,31.932,31.932,0,0,0-45.159,0,3.09,3.09,0,0,0,2.185,5.275Z" transform="translate(-225.47 -1.7)"/>
        <path id="Path_789" data-name="Path 789" class="cls-1" d="M81.221,172.081H71.853v-5.475a4.636,4.636,0,0,0-9.271,0v5.475H11.493A11.493,11.493,0,0,0,0,183.574V216.6A11.493,11.493,0,0,0,11.493,228.1H81.221A11.493,11.493,0,0,0,92.713,216.6V183.574A11.492,11.492,0,0,0,81.221,172.081ZM14.435,207.673a16.5,16.5,0,0,1-1.6-5.266H17.11v5.266Zm7.309-5.266h5.266v5.266H21.745Zm0-4.636V192.5h5.266v5.266Zm9.9,4.636h5.268v5.266H31.647v-5.266Zm0-4.636V192.5h5.268v5.266Zm9.9-5.266h2.508a16.482,16.482,0,0,1,1.733,5.266H41.55V192.5Zm-4.636-4.636H31.647v-4.107a16.519,16.519,0,0,1,5.268,1.669Zm-9.9,0H21.745v-2.441a16.56,16.56,0,0,1,5.266-1.666v4.107Zm-9.9,4.636v5.266H12.867A16.487,16.487,0,0,1,14.6,192.5Zm4.636,19.8h5.266v4.409a16.406,16.406,0,0,1-5.266-1.665Zm9.9,0h5.268v2.743a16.413,16.413,0,0,1-5.268,1.665v-4.409Zm9.9-4.636v-5.266h4.271a16.506,16.506,0,0,1-1.6,5.266Zm32.234,8.254a6.567,6.567,0,1,1,6.567-6.567A6.566,6.566,0,0,1,73.784,215.927Zm0-18.542a6.567,6.567,0,1,1,6.567-6.567A6.567,6.567,0,0,1,73.784,197.385Z" transform="translate(0 -135.935)"/>
      </g>
    </g>
  </g>
</svg>
