<svg id="spotify" xmlns="http://www.w3.org/2000/svg" viewBox="0 0 79 79">
  <defs>
    <style>
      .cls-1 {
        fill: #8d8d8d;
      }
    </style>
  </defs>
  <path id="XMLID_86_" class="cls-1" d="M39.485,0A39.5,39.5,0,1,0,79,39.488,39.531,39.531,0,0,0,39.485,0ZM19.447,54A47.883,47.883,0,0,1,33.4,51.9a47.014,47.014,0,0,1,22.688,5.825,2.807,2.807,0,0,1,.951,1.883,4.032,4.032,0,0,1-.168,2.358,2.023,2.023,0,0,1-2.745.788,43.1,43.1,0,0,0-33.46-3.4,2.094,2.094,0,0,1-.608.091,2.005,2.005,0,0,1-1.93-1.414C17.772,56.871,18.5,54.307,19.447,54ZM17.724,39.449a59.567,59.567,0,0,1,43.025,4.576,2.411,2.411,0,0,1,1.218,1.422,2.46,2.46,0,0,1-.173,1.9c-.747,1.462-1.621,2.445-2.174,2.445a2.53,2.53,0,0,1-1.147-.282,54.582,54.582,0,0,0-39.448-4.176,2.5,2.5,0,0,1-.653.087A2.464,2.464,0,0,1,16,43.608C15.628,42.218,16.474,39.789,17.724,39.449Zm-.441-9.505a2.967,2.967,0,0,1-.711.087,2.9,2.9,0,0,1-2.821-2.2,3.332,3.332,0,0,1,2.1-3.914A73.617,73.617,0,0,1,33.4,21.782a71.8,71.8,0,0,1,32.338,7.592,2.918,2.918,0,0,1,1.32,3.92,3.329,3.329,0,0,1-2.622,1.966,3.041,3.041,0,0,1-1.275-.287,65.919,65.919,0,0,0-29.761-7A67.634,67.634,0,0,0,17.283,29.944Z"/>
</svg>
