<svg xmlns="http://www.w3.org/2000/svg" xmlns:xlink="http://www.w3.org/1999/xlink" viewBox="0 0 87.952 107.5">
  <defs>
    <style>
      .cls-1 {
        fill: #ff4a4a;
      }

      .cls-2 {
        filter: url(#voice_icon);
      }
    </style>
    <filter id="voice_icon" x="0" y="0" width="87.952" height="107.5" filterUnits="userSpaceOnUse">
      <feOffset dy="14" input="SourceAlpha"/>
      <feGaussianBlur stdDeviation="8" result="blur"/>
      <feFlood flood-opacity="0.153"/>
      <feComposite operator="in" in2="blur"/>
      <feComposite in="SourceGraphic"/>
    </filter>
  </defs>
  <g class="cls-2" transform="matrix(1, 0, 0, 1, 0, 0)">
    <path id="voice_icon-2" data-name="voice_icon" class="cls-1" d="M25.032,40.171c4.737,0,8.362-3.934,8.362-9.076V11.934c0-5.142-3.625-9.076-8.362-9.076S16.67,6.792,16.67,11.934V31.095C16.67,36.237,20.294,40.171,25.032,40.171ZM39.9,31.095A14.622,14.622,0,0,1,25.032,46.222,14.622,14.622,0,0,1,10.166,31.095H4.591c0,10.593,8.293,18.652,17.653,20.169V62.357h5.575V51.264A20.007,20.007,0,0,0,44.543,31.095Z" transform="translate(19.41 7.14)"/>
  </g>
</svg>
